#!OML:ASF F:\VICON\USERDATA\INSTALL\rory3\rory3.ASF
:FULLY-SPECIFIED
:DEGREES
1005
root 6.42533 18.6431 -0.213164 197.46 -52.9323 -182.734
lowerback 18.4486 -3.35938 -3.71186
upperback 9.56329 -6.5344 -8.03317
thorax -0.572216 -3.73366 -5.21809
lowerneck -8.74707 16.5726 -0.190868
upperneck 17.357 22.7949 -3.9017
head 7.20686 10.4841 0.812561
rclavicle -6.83819e-014 3.81667e-014
rhumerus -2.25019 41.3236 -72.5057
rradius 124.579
rwrist -18.4824
rhand -41.1004 13.5304
rfingers 7.12502
rthumb -14.0284 -15.9762
lclavicle -6.83819e-014 3.81667e-014
lhumerus 13.3988 -3.21422 84.3869
lradius 26.9125
lwrist -9.98088
lhand -28.5347 11.1227
lfingers 7.12502
lthumb -1.90229 41.094
rfemur -36.1436 12.7634 11.5424
rtibia 34.617
rfoot -12.6888 -22.1399
rtoes -1.78252
lfemur -18.6066 4.92858 -12.6426
ltibia 23.6242
lfoot -15.3808 25.331
ltoes -11.965
1006
root 6.43032 18.6524 -0.195815 197.66 -53.6426 -183.05
lowerback 18.4425 -3.1223 -4.1034
upperback 9.58474 -6.25659 -7.81236
thorax -0.462354 -3.60453 -4.81971
lowerneck -8.81782 16.5378 -0.590352
upperneck 17.5395 22.7873 -3.72093
head 7.21052 10.4614 0.921484
rclavicle 5.88403e-014 6.99722e-014
rhumerus -2.56121 41.743 -72.1582
rradius 125.162
rwrist -18.2886
rhand -41.1887 13.5068
rfingers 7.12502
rthumb -14.1134 -15.9938
lclavicle 5.88403e-014 6.99722e-014
lhumerus 12.7626 -3.71303 84.5509
lradius 27.6133
lwrist -9.47301
lhand -28.7685 11.9491
lfingers 7.12502
lthumb -2.12816 41.9183
rfemur -35.88 12.743 11.3088
rtibia 34.488
rfoot -12.9079 -22.7383
rtoes -1.48094
lfemur -18.6302 4.55294 -12.7095
ltibia 23.384
lfoot -15.0406 25.0254
ltoes -12.3506
1007
root 6.43318 18.6654 -0.177039 198.021 -54.4081 -183.602
lowerback 18.4673 -2.96989 -4.56665
upperback 9.6007 -6.10682 -7.61265
thorax -0.38077 -3.54206 -4.37687
lowerneck -8.87533 16.5193 -1.01435
upperneck 17.7377 22.8099 -3.57436
head 7.21935 10.4468 1.02601
rclavicle -5.725e-014 1.59028e-015
rhumerus -2.80715 42.2471 -71.8663
rradius 125.725
rwrist -18.0547
rhand -41.038 13.3072
rfingers 7.12502
rthumb -13.9682 -16.2035
lclavicle -5.725e-014 1.59028e-015
lhumerus 12.0787 -3.853 84.7883
lradius 28.4606
lwrist -9.13308
lhand -28.8109 12.7225
lfingers 7.12502
lthumb -2.1691 42.6913
rfemur -35.558 12.446 11.0306
rtibia 34.4032
rfoot -13.1317 -23.189
rtoes -1.38298
lfemur -18.6696 4.37513 -12.9618
ltibia 23.1681
lfoot -14.1166 24.6666
ltoes -13.8825
1008
root 6.43611 18.669 -0.155185 198.207 -55.1642 -183.798
lowerback 18.3494 -2.79649 -4.78625
upperback 9.57396 -5.86645 -7.38087
thorax -0.291464 -3.42275 -4.05952
lowerneck -8.95774 16.4312 -1.2334
upperneck 18.0496 22.7244 -3.47208
head 7.29704 10.3787 1.0944
rclavicle 2.8625e-014 -1.86062e-013
rhumerus -3.13711 42.6096 -71.62
rradius 126.284
rwrist -17.8596
rhand -41.2374 13.1698
rfingers 7.12502
rthumb -14.1604 -16.3276
lclavicle 2.8625e-014 -1.86062e-013
lhumerus 11.3298 -4.11014 85.0266
lradius 29.3954
lwrist -8.7008
lhand -28.9682 12.9589
lfingers 7.12502
lthumb -2.32099 42.926
rfemur -35.42 12.1887 10.9451
rtibia 34.3529
rfoot -13.1778 -23.6135
rtoes -1.50429
lfemur -18.8409 4.13492 -12.9838
ltibia 22.9622
lfoot -13.4965 24.4181
ltoes -14.5129
1009
root 6.43924 18.667 -0.133104 198.289 -55.9272 -183.85
lowerback 18.2449 -2.47203 -5.19773
upperback 9.46433 -5.43418 -6.90508
thorax -0.253959 -3.20907 -3.40455
lowerneck -8.90443 16.239 -1.3684
upperneck 18.4915 22.5259 -3.60129
head 7.43273 10.2312 1.07293
rclavicle 1.25632e-013 -1.27222e-014
rhumerus -3.65586 42.8047 -71.0692
rradius 126.951
rwrist -17.9559
rhand -41.5673 13.0029
rfingers 7.12502
rthumb -14.4782 -16.4719
lclavicle 1.25632e-013 -1.27222e-014
lhumerus 10.5687 -4.53524 85.6621
lradius 30.2039
lwrist -8.21701
lhand -29.1486 13.2327
lfingers 7.12502
lthumb -2.4952 43.1978
rfemur -35.325 11.8645 10.9729
rtibia 34.3065
rfoot -13.1413 -23.9782
rtoes -1.67501
lfemur -19.0673 3.91061 -12.9069
ltibia 22.8246
lfoot -13.237 24.0673
ltoes -14.3271
1010
root 6.44043 18.6669 -0.115579 198.207 -56.707 -183.744
lowerback 18.2647 -3.03721 -2.30288
upperback 9.28369 -5.91569 -9.07181
thorax -0.969407 -3.36298 -7.26818
lowerneck -8.71433 16.5567 0.89197
upperneck 18.9925 22.3552 -2.29804
head 7.65207 10.3785 1.17935
rclavicle -4.77083e-015 1.27222e-014
rhumerus -5.72611 42.415 -75.8946
rradius 127.273
rwrist -17.4035
rhand -41.6059 12.8265
rfingers 7.12502
rthumb -14.5155 -16.6457
lclavicle -4.77083e-015 1.27222e-014
lhumerus 9.24389 -6.9146 81.9892
lradius 31.288
lwrist -6.62873
lhand -28.9814 13.7241
lfingers 7.12502
lthumb -2.33376 43.6911
rfemur -35.1411 11.5761 11.1152
rtibia 34.229
rfoot -13.1987 -24.3296
rtoes -1.72804
lfemur -19.3146 3.9368 -12.7627
ltibia 22.7933
lfoot -12.8279 23.5883
ltoes -15.0353
1011
root 6.44109 18.6674 -0.096175 197.963 -57.5289 -183.561
lowerback 18.0928 -2.71287 -2.68483
upperback 9.32272 -5.45772 -8.49798
thorax -0.700382 -3.1319 -6.52705
lowerneck -8.75993 16.3813 0.490365
upperneck 19.1946 22.2253 -2.44969
head 7.69842 10.2656 1.18334
rclavicle 3.18055e-014 -2.54444e-014
rhumerus -5.73908 42.4174 -75.1033
rradius 127.855
rwrist -17.2985
rhand -41.5054 11.9546
rfingers 7.12502
rthumb -14.4186 -17.5245
lclavicle 3.18055e-014 -2.54444e-014
lhumerus 8.79897 -6.91979 82.9284
lradius 31.9337
lwrist -6.64357
lhand -28.6076 13.5527
lfingers 7.12502
lthumb -1.97278 43.5233
rfemur -34.8383 11.4116 11.2897
rtibia 34.1454
rfoot -13.3061 -24.7773
rtoes -1.54507
lfemur -19.4661 3.66223 -12.5394
ltibia 22.7969
lfoot -12.6796 23.2912
ltoes -15.2101
1012
root 6.44306 18.6693 -0.0735474 197.525 -58.4449 -183.087
lowerback 17.9801 -2.52759 -2.51194
upperback 9.28848 -5.12665 -8.20586
thorax -0.634134 -2.94942 -6.3771
lowerneck -8.75533 16.2274 0.575264
upperneck 19.4293 22.0311 -2.5227
head 7.79128 10.1571 1.14585
rclavicle 1.90833e-014 4.92986e-014
rhumerus -6.00104 42.2599 -75.0042
rradius 128.45
rwrist -17.1834
rhand -41.4254 11.13
rfingers 7.12502
rthumb -14.3415 -18.3546
lclavicle 1.90833e-014 4.92986e-014
lhumerus 8.20428 -7.37153 83.2466
lradius 32.7208
lwrist -6.41262
lhand -28.8158 13.668
lfingers 7.12502
lthumb -2.1738 43.6367
rfemur -34.5955 11.2617 11.6059
rtibia 34.0566
rfoot -13.4878 -25.2341
rtoes -1.18064
lfemur -19.702 2.97369 -12.1009
ltibia 22.8471
lfoot -12.76 23.2763
ltoes -14.7696
1013
root 6.4432 18.6688 -0.0508393 197.298 -59.3544 -182.84
lowerback 17.7851 -2.23258 -3.08865
upperback 9.2543 -4.72055 -7.44718
thorax -0.428205 -2.75063 -5.3128
lowerneck -8.75142 16.0447 0.182299
upperneck 19.6615 21.9221 -2.83611
head 7.86163 10.0359 1.10188
rclavicle 4.29375e-014 7.4743e-014
rhumerus -5.8619 42.1953 -73.9076
rradius 129.071
rwrist -17.4078
rhand -41.2169 10.9358
rfingers 7.12502
rthumb -14.1407 -18.563
lclavicle 4.29375e-014 7.4743e-014
lhumerus 7.59506 -7.47885 84.2395
lradius 33.7041
lwrist -6.26863
lhand -29.3537 15.0761
lfingers 7.12502
lthumb -2.69328 45.0388
rfemur -34.3678 10.9583 11.8091
rtibia 33.9664
rfoot -13.5482 -25.5709
rtoes -0.881913
lfemur -19.9938 2.68265 -11.8836
ltibia 22.9182
lfoot -12.6109 22.9616
ltoes -14.9179
1014
root 6.4442 18.6659 -0.0269698 197.214 -60.245 -182.751
lowerback 17.6049 -2.08632 -3.32868
upperback 9.22523 -4.50044 -7.07705
thorax -0.304407 -2.63963 -4.82694
lowerneck -8.94042 16.0052 0.0284944
upperneck 20.0638 21.9253 -2.85723
head 8.0148 9.99569 1.15132
rclavicle 3.65764e-014 -3.49861e-014
rhumerus -5.79989 42.0423 -73.5564
rradius 129.609
rwrist -17.703
rhand -41.2739 10.639
rfingers 7.12502
rthumb -14.1956 -18.8559
lclavicle 3.65764e-014 -3.49861e-014
lhumerus 7.0238 -7.4946 84.7377
lradius 34.7778
lwrist -6.08651
lhand -29.5421 16.6212
lfingers 7.12502
lthumb -2.87527 46.5816
rfemur -34.152 10.5199 11.9575
rtibia 33.8706
rfoot -13.6087 -25.9142
rtoes -1.03639
lfemur -20.3354 2.60148 -11.8014
ltibia 23.0119
lfoot -12.3917 22.523
ltoes -15.0553
